<?xml version="1.0" encoding="UTF-8" standalone="no"?>
<svg
   width="26.256245"
   height="24.473576"
   viewBox="0 0 26.256245 24.473576"
   fill="none"
   version="1.1"
   id="svg6135"
   sodipodi:docname="78.svg"
   xml:space="preserve"
   inkscape:export-filename="..\icons\ecar.svg"
   inkscape:export-xdpi="96"
   inkscape:export-ydpi="96"
   xmlns:inkscape="http://www.inkscape.org/namespaces/inkscape"
   xmlns:sodipodi="http://sodipodi.sourceforge.net/DTD/sodipodi-0.dtd"
   xmlns="http://www.w3.org/2000/svg"
   xmlns:svg="http://www.w3.org/2000/svg"><defs
     id="defs6139" /><sodipodi:namedview
     id="namedview6137"
     pagecolor="#ffffff"
     bordercolor="#000000"
     borderopacity="0.25"
     inkscape:showpageshadow="2"
     inkscape:pageopacity="0.0"
     inkscape:pagecheckerboard="0"
     inkscape:deskcolor="#d1d1d1"
     showgrid="false" /><path
     style="fill:#ffffff;stroke-width:0.342637"
     d="M 9.0890503e-8,23.150916 V 21.828257 H 11.538943 23.077887 v 1.322659 1.322659 H 11.538943 9.0890503e-8 Z M 3.7932236,18.718416 C 3.0480204,18.462889 2.1129862,17.979626 1.7153687,17.644498 0.10878199,16.290392 9.0890503e-8,15.655064 9.0890503e-8,7.6260845 V 0.00437041 H 12.209701 c 14.831114,0 13.824811,-0.3127347 14.006112,4.35275859 0.10674,2.7468675 0.03646,3.1882213 -0.634032,3.9820914 -0.652568,0.772641 -1.051073,0.906036 -2.960403,0.990963 l -2.206324,0.09814 -0.177523,2.9759846 c -0.201623,3.380022 -0.910674,4.832978 -2.904593,5.951969 -1.022588,0.573879 -1.906126,0.672266 -6.681605,0.744033 C 6.6175884,19.16093 4.786357,19.05895 3.7932236,18.718419 Z M 23.432931,4.799012 V 2.6496905 h -1.5977 -1.5977 V 4.578568 c 0,1.0608842 0.106516,2.0280795 0.236698,2.1493229 0.130184,0.1212407 0.849145,0.2204427 1.5977,0.2204427 h 1.361002 z"
     id="path7549" /></svg>
