<?xml version="1.0" encoding="UTF-8" standalone="no"?>
<svg
   width="137"
   height="34"
   viewBox="0 0 137 34"
   fill="none"
   version="1.1"
   id="svg7922"
   sodipodi:docname="deski_07.svg"
   inkscape:export-filename="..\logosy\logo_small.png"
   inkscape:export-xdpi="96"
   inkscape:export-ydpi="96"
   xmlns:inkscape="http://www.inkscape.org/namespaces/inkscape"
   xmlns:sodipodi="http://sodipodi.sourceforge.net/DTD/sodipodi-0.dtd"
   xmlns="http://www.w3.org/2000/svg"
   xmlns:svg="http://www.w3.org/2000/svg">
  <sodipodi:namedview
     id="namedview7924"
     pagecolor="#ffffff"
     bordercolor="#000000"
     borderopacity="0.25"
     inkscape:showpageshadow="2"
     inkscape:pageopacity="0.0"
     inkscape:pagecheckerboard="0"
     inkscape:deskcolor="#d1d1d1"
     showgrid="false" />
  <defs
     id="defs7920" />
  <path
     d="m 12.627791,31.737262 h 27.719251 c 0.309906,0 0.562747,-0.25293 0.562747,-0.56274 v -0.11525 c 0,-0.30991 -0.252841,-0.56275 -0.562747,-0.56275 H 12.627791 c -0.309566,0 -0.562492,0.2531 -0.562492,0.56275 v 0.11525 c 0,0.30981 0.252671,0.56274 0.562492,0.56274"
     style="fill:#fbc707;fill-opacity:1;fill-rule:evenodd;stroke:none;stroke-width:0.859417"
     id="path5654" />
  <path
     d="m 18.1077,12.927256 c 0,0.0721 -0.09213,0.248028 -0.27209,0.531808 -0.180047,0.287992 -0.44389,0.704037 -0.795907,1.255869 -0.351762,0.547879 -0.779838,1.251657 -1.279764,2.107466 -0.499833,0.85581 -1.015573,1.803748 -1.547637,2.843473 -0.607783,1.191756 -1.047804,2.131615 -1.319639,2.81546 -0.267966,0.68383 -0.40393,1.27168 -0.40393,1.76352 0,0.39199 0.208069,0.73601 0.619983,1.03199 0.503795,-0.39198 0.995636,-0.85581 1.479493,-1.39595 0.484028,-0.53568 0.964009,-1.13959 1.435828,-1.80349 0.471912,-0.663817 1.01979,-1.503812 1.643726,-2.51552 0.619728,-1.015661 1.17173,-1.951653 1.655587,-2.799384 -0.02414,-0.0721 -0.04804,-0.140085 -0.07605,-0.211932 -0.02801,-0.07211 -0.03992,-0.127882 -0.03992,-0.175923 0,-0.36809 0.07597,-0.711857 0.223883,-1.031905 0.148079,-0.319876 0.331994,-0.631757 0.55587,-0.939688 0.223882,-0.303976 0.555955,-0.732053 1.003713,-1.287752 0.116196,-0.148078 0.259974,-0.22405 0.431944,-0.22405 0.284035,0 0.423867,0.179961 0.423867,0.539799 0,0.360098 -0.147909,0.924048 -0.439681,1.69168 -0.292112,0.767892 -0.724056,1.671656 -1.295825,2.711466 -0.567823,1.039983 -1.279679,2.199595 -2.127499,3.483395 -0.847982,1.283624 -1.807611,2.623464 -2.875353,4.023024 -1.088027,1.41177 -1.863648,2.11976 -2.335552,2.11976 -0.264106,0 -0.563955,-0.14817 -0.899903,-0.44002 -0.33594,-0.29187 -0.627805,-0.69184 -0.867757,-1.19975 -0.244067,-0.50801 -0.363962,-1.04781 -0.363962,-1.62765 0,-0.33982 0.07187,-0.78388 0.215798,-1.31964 0.144041,-0.54006 0.372047,-1.183939 0.679981,-1.939626 0.307926,-0.751819 0.655819,-1.495818 1.043843,-2.227613 0.407883,-0.771758 0.763769,-1.415634 1.075563,-1.919684 0.308189,-0.507744 0.656082,-1.071695 1.047804,-1.695546 0.391985,-0.619813 0.588101,-0.955759 0.588101,-1.011793 0,-0.115936 -0.08018,-0.175837 -0.236084,-0.175837 -0.451882,0 -1.055796,0.231871 -1.807612,0.691832 -0.755947,0.459702 -1.735514,1.159612 -2.943334,2.095347 -0.4638349,0.360012 -0.7518239,0.591968 -0.8758349,0.695958 -0.120064,0.104075 -0.179961,0.191995 -0.179961,0.263842 0,0.09213 0.07597,0.140085 0.223875,0.140085 0.06019,0 0.27209,-0.02406 0.6279749,-0.07211 0.359839,-0.04796 0.643882,-0.07185 0.855812,-0.07185 0.351846,0 0.52794,0.06411 0.52794,0.187869 0,0.111982 -0.0721,0.196033 -0.220007,0.260146 -0.143955,0.06385 -0.340079,0.123756 -0.595837,0.187783 -0.251897,0.06411 -0.595922,0.147906 -1.0358589,0.259973 -0.46795,0.124015 -0.967877,0.304064 -1.495817,0.539887 -0.527685,0.231872 -0.831658,0.347806 -0.911585,0.347806 -0.148079,0 -0.239952,-0.05182 -0.276043,-0.16389 -0.03605,-0.107943 -0.05207,-0.287991 -0.05207,-0.539887 0,-1.107703 0.184171,-1.96738 0.552002,-2.57138 0.36783,-0.607781 1.023658,-1.239711 1.967644,-1.895534 1.0797709,-0.751991 2.1114139,-1.375928 3.0953669,-1.871726 0.987644,-0.495971 1.835456,-0.859936 2.551436,-1.087682 0.715724,-0.231955 1.239711,-0.347892 1.575659,-0.347892 0.327956,0 0.655827,0.211933 0.979822,0.635798 0.323748,0.423951 0.487981,0.867755 0.487981,1.339661"
     style="fill:#ffffff;fill-opacity:1;fill-rule:nonzero;stroke:none;stroke-width:0.859417"
     id="path5656" />
  <path
     d="m 24.5542,17.238273 c -0.196123,0 -0.380039,-0.0758 -0.555877,-0.223879 -0.176179,-0.147906 -0.264098,-0.335948 -0.264098,-0.559825 0,-0.344026 0.163978,-0.727928 0.491849,-1.151794 0.328126,-0.419998 0.668028,-0.63193 1.015914,-0.63193 0.235998,0 0.431859,0.0721 0.587845,0.216058 0.156156,0.143953 0.231875,0.355886 0.231875,0.627805 0,0.335947 -0.159769,0.707904 -0.479904,1.115784 -0.319879,0.40384 -0.663896,0.607781 -1.027604,0.607781 z m 0.795652,5.235059 v 0.85581 c -0.759815,0.97587 -1.467548,1.71574 -2.123537,2.21154 -0.655828,0.49598 -1.211783,0.74374 -1.671486,0.74374 -0.643882,0 -1.119909,-0.33568 -1.431712,-1.00758 -0.312049,-0.67189 -0.46795,-1.4079 -0.46795,-2.20372 0,-0.3038 0.03188,-0.59592 0.09204,-0.87171 0.06383,-0.27991 0.139832,-0.507914 0.223883,-0.687963 0.08792,-0.180049 0.248028,-0.459961 0.483849,-0.843863 1.107709,-1.727517 2.123537,-2.591317 3.043462,-2.591317 0.475773,0 0.715725,0.183914 0.715725,0.551745 0,0.248029 -0.155901,0.64001 -0.463835,1.171818 -0.307926,0.531808 -0.583969,0.911843 -0.823921,1.139846 -0.679625,0.655823 -1.123778,1.111654 -1.327716,1.367684 -0.207806,0.25997 -0.311794,0.55174 -0.311794,0.8797 0,0.28017 0.103988,0.51599 0.316011,0.70403 0.211929,0.18778 0.483764,0.27992 0.819704,0.27992 0.367924,0 0.771761,-0.13596 1.211782,-0.40393 0.439937,-0.26797 1.011713,-0.69991 1.715492,-1.29575"
     style="fill:#ffffff;fill-opacity:1;fill-rule:nonzero;stroke:none;stroke-width:0.859417"
     id="path5658" />
  <path
     d="m 30.844885,22.341242 v 0.86801 c -1.635649,2.16359 -2.963365,3.24327 -3.987015,3.24327 -0.552094,0 -0.987899,-0.30405 -1.303825,-0.90771 -0.316011,-0.60392 -0.476035,-1.39982 -0.476035,-2.38351 0,-0.79591 0.188046,-1.743849 0.563954,-2.839608 0.37204,-1.099712 0.875834,-2.211541 1.50381,-3.339184 0.627805,-1.127731 1.279764,-2.111679 1.95552,-2.951416 0.675765,-0.839995 1.303825,-1.427838 1.883586,-1.763785 0.23196,-0.139827 0.415875,-0.211933 0.547971,-0.211933 0.163893,0 0.271834,0.07211 0.327863,0.216059 0.05191,0.143952 0.07993,0.391981 0.07993,0.743741 0,1.087765 -0.439766,2.419606 -1.323592,4.003342 -0.883826,1.579613 -2.115545,3.195233 -3.695414,4.842824 -0.07597,0.40805 -0.115933,0.71985 -0.115933,0.93599 0,0.49984 0.107941,0.90772 0.324003,1.21978 0.215883,0.31179 0.511871,0.46769 0.895771,0.46769 0.195861,0 0.408054,-0.076 0.635882,-0.22775 0.228007,-0.15202 0.463827,-0.34402 0.71598,-0.56807 0.247688,-0.22783 0.739793,-0.67585 1.467547,-1.34774 z m -3.511243,-2.103598 c 0.408054,-0.399802 0.799776,-0.851686 1.179815,-1.359601 0.379776,-0.507917 0.73987,-1.047802 1.075818,-1.627567 0.335948,-0.575897 0.599783,-1.095845 0.791698,-1.55572 0.191993,-0.459961 0.287989,-0.807853 0.287989,-1.043935 0,-0.179791 -0.06414,-0.267967 -0.187869,-0.267967 -0.04797,0 -0.136134,0.04409 -0.267966,0.128138 -0.479904,0.391982 -1.015836,1.151794 -1.611759,2.287517 -0.595829,1.135806 -1.015828,2.283473 -1.267726,3.439135"
     style="fill:#ffffff;fill-opacity:1;fill-rule:nonzero;stroke:none;stroke-width:0.859417"
     id="path5660" />
  <path
     d="m 36.339834,22.341242 v 0.86801 c -1.63565,2.16359 -2.963358,3.24327 -3.987016,3.24327 -0.552001,0 -0.987814,-0.30405 -1.303825,-0.90771 -0.316003,-0.60392 -0.476027,-1.39982 -0.476027,-2.38351 0,-0.79591 0.188039,-1.743849 0.563947,-2.839608 0.372047,-1.099712 0.875834,-2.211541 1.503902,-3.339184 0.627712,-1.127731 1.279671,-2.111679 1.955428,-2.951416 0.675849,-0.839995 1.303825,-1.427838 1.883678,-1.763785 0.231867,-0.139827 0.415783,-0.211933 0.547878,-0.211933 0.163978,0 0.271834,0.07211 0.327871,0.216059 0.05191,0.143952 0.07992,0.391981 0.07992,0.743741 0,1.087765 -0.439673,2.419606 -1.323584,4.003342 -0.883826,1.579613 -2.115545,3.195233 -3.695328,4.842824 -0.07605,0.40805 -0.116027,0.71985 -0.116027,0.93599 0,0.49984 0.107942,0.90772 0.324003,1.21978 0.215883,0.31179 0.511871,0.46769 0.895771,0.46769 0.195946,0 0.408139,-0.076 0.635882,-0.22775 0.228007,-0.15202 0.463835,-0.34402 0.715988,-0.56807 0.247766,-0.22783 0.73987,-0.67585 1.467539,-1.34774 z m -3.511243,-2.103598 c 0.408053,-0.399802 0.799775,-0.851686 1.179814,-1.359601 0.379776,-0.507917 0.73987,-1.047802 1.075819,-1.627567 0.335948,-0.575897 0.59979,-1.095845 0.791783,-1.55572 0.191907,-0.459961 0.287903,-0.807853 0.287903,-1.043935 0,-0.179791 -0.06406,-0.267967 -0.187783,-0.267967 -0.04805,0 -0.136219,0.04409 -0.267967,0.128138 -0.479981,0.391982 -1.015913,1.151794 -1.611751,2.287517 -0.595922,1.135806 -1.015921,2.283473 -1.267818,3.439135"
     style="fill:#ffffff;fill-opacity:1;fill-rule:nonzero;stroke:none;stroke-width:0.859417"
     id="path5662" />
  <path
     d="m 37.603691,20.377727 c 1.187892,-1.079686 2.339684,-1.879462 3.459338,-2.403535 1.115778,-0.52373 1.979582,-0.783875 2.587449,-0.783875 0.163893,0 0.315918,0.06815 0.459959,0.204112 0.140002,0.13596 0.251897,0.295726 0.331995,0.475774 0.08379,0.180047 0.123755,0.312054 0.123755,0.400059 0,0.139827 -0.05578,0.243816 -0.163978,0.307929 -0.107856,0.0679 -0.299849,0.14782 -0.575637,0.239951 0.05578,0.127881 0.127879,0.287904 0.211938,0.483766 0.088,0.191995 0.151769,0.352018 0.199806,0.471907 0.04797,0.124013 0.068,0.228004 0.068,0.324 0,0.187869 -0.187869,0.535934 -0.5679,1.047804 -0.375908,0.511783 -0.643874,0.887693 -0.795652,1.131853 -0.152032,0.24382 -0.228006,0.5398 -0.228006,0.89156 0,0.57598 0.263842,0.86802 0.795914,0.86802 0.547878,0 1.403682,-0.51205 2.56742,-1.5357 v 0.71177 c -1.975714,2.19547 -3.391348,3.29132 -4.243292,3.29132 -0.307926,0 -0.523724,-0.0999 -0.655819,-0.29995 -0.127887,-0.19998 -0.191908,-0.49184 -0.191908,-0.88381 0,-0.61587 0.223876,-1.50777 0.671804,-2.67925 -1.143708,1.26361 -1.987574,2.16351 -2.543537,2.69918 -0.555699,0.53207 -1.011704,0.80003 -1.371543,0.80003 -0.17197,0 -0.383985,-0.14807 -0.643874,-0.44406 -0.256021,-0.29994 -0.484113,-0.68384 -0.683842,-1.15574 -0.199984,-0.47183 -0.300112,-0.96376 -0.300112,-1.46772 0,-0.36792 0.03605,-0.67585 0.103996,-0.91966 0.07211,-0.24803 0.208061,-0.499927 0.412007,-0.755947 0.203853,-0.259975 0.527855,-0.59979 0.971737,-1.019788 z m 5.614843,-1.291619 c -2.031494,0.93178 -3.479352,1.719696 -4.342901,2.36744 -0.863888,0.651864 -1.295833,1.319634 -1.295833,2.007604 0,0.24803 0.04379,0.45583 0.127887,0.61586 0.088,0.15985 0.203938,0.23995 0.352017,0.23995 0.088,0 0.240037,-0.056 0.455835,-0.1639 0.819798,-0.48411 1.571791,-1.11578 2.251502,-1.89561 0.679888,-0.775887 1.499685,-1.835636 2.451493,-3.171344"
     style="fill:#ffffff;fill-opacity:1;fill-rule:nonzero;stroke:none;stroke-width:0.859417"
     id="path5664" />
  <path
     d="m 80.60088,13.540561 c 1.87534,0.301141 3.6057,1.187201 4.95463,2.53606 1.7026,1.702593 2.65071,3.99088 2.65071,6.399321 0,2.4086 -0.94785,4.6968 -2.65071,6.39948 -1.34893,1.34886 -3.17091,2.28167 -5.04624,2.58281 -0.11989,0.0193 -0.13914,-0.0587 -0.23145,-0.13742 -0.0923,-0.0787 -0.14059,-0.18322 -0.14059,-0.30449 v -0.35812 c 0,-0.19706 0.17789,-0.40805 0.37229,-0.44045 1.61631,-0.27115 3.06753,-0.99495 4.23058,-2.15775 1.48559,-1.48576 2.31261,-3.48244 2.31261,-5.58406 0,-2.101456 -0.82676,-4.098142 -2.31261,-5.583905 -1.16305,-1.163051 -2.65251,-1.932404 -4.26882,-2.203549 -0.1944,-0.03266 -0.33405,-0.197581 -0.33405,-0.394645 v -0.35812 c 0,-0.121263 0.0483,-0.225856 0.14059,-0.304493 0.0923,-0.07898 0.20318,-0.109919 0.32306,-0.09067"
     style="fill:#fbc707;fill-opacity:1;fill-rule:evenodd;stroke:none;stroke-width:0.859417"
     id="path5666" />
  <path
     d="m 55.63933,31.458232 h 24.86994 v -1.24048 H 55.63933 c -0.309821,0 -0.562748,0.25284 -0.562748,0.56249 v 0.11551 c 0,0.30955 0.252927,0.56248 0.562748,0.56248"
     style="fill:#fbc707;fill-opacity:1;fill-rule:evenodd;stroke:none;stroke-width:0.859417"
     id="path5668" />
  <path
     d="m 58.870661,22.744332 c -0.195868,-0.36001 -0.487725,-0.68384 -0.879702,-0.971743 -0.387861,-0.287991 -0.827789,-0.52012 -1.31577,-0.696044 -0.487981,-0.175837 -0.99976,-0.307929 -1.5277,-0.39198 -1.57566,-0.235825 -3.047331,-0.74374 -4.415007,-1.535438 -0.115941,-0.06024 -0.239951,-0.191995 -0.372047,-0.396192 -0.132002,-0.203854 -0.199984,-0.399716 -0.199984,-0.587842 0,-0.683754 0.115933,-1.375671 0.344025,-2.063378 0.231875,-0.691832 0.523987,-1.231718 0.883826,-1.623699 0.5759,-0.648002 1.615619,-1.215905 3.119436,-1.703626 1.503639,-0.484024 3.195317,-0.727841 5.078903,-0.727841 1.123778,0 1.991527,0.08792 2.607387,0.259889 0.611989,0.171969 0.919923,0.435809 0.919923,0.795907 0,0.587843 -0.08405,1.043592 -0.244076,1.363724 -0.159854,0.319876 -0.331824,0.531808 -0.511869,0.639753 -0.183916,0.103988 -0.507918,0.248026 -0.967622,0.427989 -0.492096,0.171798 -0.919917,0.351847 -1.28388,0.539888 -0.363962,0.187868 -0.671896,0.367831 -0.931785,0.539886 -0.256106,0.171969 -0.415868,0.25602 -0.479981,0.25602 -0.07597,0 -0.115941,-0.03214 -0.115941,-0.09213 0,-0.135874 0.135963,-0.335946 0.415875,-0.603914 0.276043,-0.271834 0.619983,-0.507916 1.023913,-0.711856 0.431945,-0.223878 0.643874,-0.36783 0.643874,-0.431857 0,-0.09995 -0.236083,-0.152032 -0.711856,-0.152032 -1.447772,0 -2.779356,0.128139 -4.007208,0.388028 -1.227851,0.255849 -2.191604,0.595921 -2.899506,1.01566 -0.707733,0.423865 -1.05975,0.851942 -1.05975,1.287753 0,0.276045 0.147901,0.467952 0.440022,0.580022 0.291857,0.111809 0.939862,0.303804 1.939622,0.567903 0.995635,0.263843 1.891407,0.571772 2.679322,0.911843 1.131769,0.483768 1.971504,0.987645 2.519382,1.511633 0.547971,0.523729 0.820061,1.107704 0.820061,1.755444 0,0.44415 -0.108205,0.89191 -0.324003,1.33992 -0.21193,0.44776 -0.527941,0.85968 -0.939855,1.23559 -0.415875,0.37204 -0.89191,0.67997 -1.431796,0.92379 -0.459874,0.19612 -1.03972,0.38004 -1.735507,0.55201 -0.699825,0.17205 -1.455772,0.30792 -2.271701,0.40392 -0.815589,0.0999 -1.595682,0.14791 -2.335297,0.14791 -1.367854,0 -2.467563,-0.12788 -3.299484,-0.38786 -0.831658,-0.25602 -1.247533,-0.64775 -1.247533,-1.17173 0,-0.23196 0.139832,-0.59592 0.423867,-1.09189 0.279912,-0.4958 0.611737,-0.83175 0.995636,-1.00372 0.335948,-0.132 0.659951,-0.20806 0.971831,-0.228 0.312057,-0.02 0.46795,0.0161 0.46795,0.11207 0,0.0238 -0.01191,0.048 -0.03598,0.0718 -0.02391,0.0202 -0.04805,0.0402 -0.07993,0.056 -0.03195,0.0161 -0.06414,0.0322 -0.096,0.048 -0.155893,0.0641 -0.279911,0.11207 -0.380031,0.14817 -0.096,0.0319 -0.175924,0.068 -0.23196,0.10373 -0.05988,0.0361 -0.08792,0.0841 -0.08792,0.14404 0,0.16415 0.807852,0.24795 2.423479,0.24795 1.403682,0 2.555474,-0.0519 3.451253,-0.15204 0.89998,-0.0999 1.691678,-0.28378 2.379643,-0.55175 0.683834,-0.26384 1.311639,-0.63193 1.87147,-1.09971"
     style="fill:#ffffff;fill-opacity:1;fill-rule:nonzero;stroke:none;stroke-width:0.859417"
     id="path5670" />
  <path
     d="m 69.780458,22.416462 v 0.78371 c -0.515995,0.46795 -0.927917,0.77983 -1.239796,0.93986 -0.312058,0.1559 -0.759816,0.21579 -1.347653,0.18391 -1.011968,1.2037 -1.90774,1.80761 -2.6795,1.80761 -0.439937,0 -0.835867,-0.14394 -1.195706,-0.43194 -0.360009,-0.29186 -0.647997,-0.68375 -0.859933,-1.18368 -0.215798,-0.49992 -0.324002,-1.05974 -0.324002,-1.6756 0,-0.49993 0.164241,-1.055798 0.49597,-1.663665 0.33208,-0.608038 0.764024,-1.175856 1.291709,-1.703797 0.523988,-0.527941 1.087934,-0.951805 1.691679,-1.275548 0.599961,-0.324002 1.159784,-0.487978 1.671655,-0.487978 0.368086,0 0.656075,0.05604 0.868013,0.167843 0.211929,0.115937 0.315662,0.272093 0.315662,0.476032 0,0.155899 -0.08792,0.335947 -0.267711,0.539802 0.295726,0.05999 0.499926,0.163978 0.607868,0.307929 0.107857,0.14404 0.163893,0.408052 0.163893,0.791782 0,0.376168 -0.08792,0.847989 -0.264013,1.415892 -0.175923,0.571768 -0.415875,1.103838 -0.719677,1.603678 l 0.211929,0.21202 h 0.175924 c 0.13201,0 0.263842,-0.0361 0.391984,-0.10013 0.127879,-0.068 0.243813,-0.13596 0.343677,-0.21202 0.104081,-0.0718 0.324003,-0.23994 0.668028,-0.49571 z m -2.411526,-3.075427 c -0.647835,0.387857 -1.199837,0.743741 -1.663664,1.059748 -0.459958,0.31601 -0.847819,0.635799 -1.171814,0.959885 -0.319879,0.323743 -0.531809,0.647744 -0.643882,0.975614 -0.195861,0.87188 -0.291857,1.34379 -0.291857,1.41563 0,0.516 0.359839,0.77202 1.079772,0.77202 0.335948,0 0.895771,-0.28791 1.687725,-0.8638 -0.132003,-0.36792 -0.199985,-0.71994 -0.199985,-1.05588 0,-0.49185 0.09986,-0.991688 0.30381,-1.503557 0.204108,-0.512042 0.504042,-1.095758 0.899895,-1.75966"
     style="fill:#ffffff;fill-opacity:1;fill-rule:nonzero;stroke:none;stroke-width:0.859417"
     id="path5672" />
  <path
     d="m 75.363156,22.308262 v 0.86802 c -1.63565,2.16358 -2.963358,3.24327 -3.987016,3.24327 -0.552001,0 -0.987899,-0.30407 -1.303825,-0.90772 -0.316003,-0.60391 -0.476027,-1.39982 -0.476027,-2.38351 0,-0.79591 0.188039,-1.743847 0.563946,-2.839606 0.372048,-1.099711 0.875834,-2.211542 1.50381,-3.339185 0.627805,-1.127729 1.279764,-2.111677 1.955521,-2.951414 0.675764,-0.839996 1.303824,-1.427839 1.883678,-1.763785 0.231867,-0.139827 0.415782,-0.211933 0.547878,-0.211933 0.163893,0 0.271834,0.07211 0.327863,0.216058 0.05191,0.143951 0.07993,0.39198 0.07993,0.743741 0,1.087766 -0.439758,2.419607 -1.323584,4.003343 -0.883826,1.579611 -2.115545,3.195233 -3.695329,4.842821 -0.07605,0.40805 -0.116026,0.71985 -0.116026,0.936 0,0.49983 0.107942,0.90771 0.324003,1.21977 0.215883,0.3118 0.511871,0.46769 0.895771,0.46769 0.195861,0 0.408054,-0.076 0.635882,-0.22774 0.228007,-0.15203 0.463827,-0.34403 0.715988,-0.56808 0.247765,-0.22783 0.73987,-0.67584 1.46754,-1.34774 z m -3.511243,-2.103597 c 0.408053,-0.399802 0.799775,-0.851683 1.179814,-1.359599 0.379776,-0.507918 0.73987,-1.047804 1.075818,-1.627567 0.335948,-0.575897 0.599791,-1.095844 0.791783,-1.55572 0.191908,-0.45996 0.287904,-0.807853 0.287904,-1.043937 0,-0.17979 -0.06406,-0.267966 -0.187784,-0.267966 -0.04804,0 -0.136219,0.04409 -0.268051,0.12814 -0.479896,0.391981 -1.015836,1.151792 -1.611751,2.287514 -0.595837,1.135807 -1.015836,2.283475 -1.267733,3.439135"
     style="fill:#ffffff;fill-opacity:1;fill-rule:nonzero;stroke:none;stroke-width:0.859417"
     id="path5674" />
  <path
     d="m 91.39836,17.864726 c -0.29435,0.08843 -0.60495,-0.07889 -0.69312,-0.372901 -0.0884,-0.294351 0.0787,-0.604945 0.37299,-0.693122 l 3.4454,-1.024169 c 0.29435,-0.08843 0.60495,0.07872 0.69313,0.372988 0.0884,0.294265 -0.0787,0.604687 -0.37299,0.693035 z m -6.00072,-6.85094 c -0.0936,0.292889 -0.4071,0.454116 -0.69966,0.360613 -0.29263,-0.09385 -0.45411,-0.407107 -0.3606,-0.699654 l 1.08656,-3.4262443 c 0.0935,-0.292545 0.40685,-0.454116 0.69965,-0.360527 0.29255,0.09376 0.45412,0.407106 0.36027,0.699654 z M 99.7538,23.422582 c 0.29529,0.0826 0.46778,0.38932 0.38519,0.68453 -0.0826,0.2953 -0.38932,0.46779 -0.68453,0.38519 l -7.5811,-2.10532 c -0.29521,-0.0826 -0.46796,-0.38931 -0.38511,-0.684523 0.0826,-0.295038 0.38923,-0.467781 0.68453,-0.385191 z M 77.857015,2.4996977 c -0.07729,-0.296672 0.100901,-0.59996 0.39757,-0.677478 0.296755,-0.07718 0.600045,0.100894 0.677215,0.397565 l 1.96773,7.618145 c 0.0772,0.2966713 -0.1009,0.5999593 -0.39757,0.6774783 -0.29676,0.07718 -0.60004,-0.100894 -0.67748,-0.397566 z M 88.95855,13.980584 c -0.21975,0.2158 -0.57297,0.212621 -0.78911,-0.0069 -0.21555,-0.220011 -0.21237,-0.573231 0.007,-0.789118 l 5.61364,-5.5127403 c 0.21975,-0.215885 0.57297,-0.212448 0.78885,0.0077 0.21581,0.219494 0.21262,0.572974 -0.007,0.78886 L 88.9583,13.981125 Z"
     style="fill:#fbc707;fill-opacity:1;fill-rule:nonzero;stroke:none;stroke-width:0.859417"
     id="path5676" />
</svg>
