<?xml version="1.0" encoding="UTF-8" standalone="no"?>
<svg
   width="25.467081"
   height="28.225948"
   viewBox="0 0 25.467081 28.225948"
   fill="none"
   version="1.1"
   id="svg6135"
   sodipodi:docname="78.svg"
   xml:space="preserve"
   xmlns:inkscape="http://www.inkscape.org/namespaces/inkscape"
   xmlns:sodipodi="http://sodipodi.sourceforge.net/DTD/sodipodi-0.dtd"
   xmlns="http://www.w3.org/2000/svg"
   xmlns:svg="http://www.w3.org/2000/svg"><defs
     id="defs6139" /><sodipodi:namedview
     id="namedview6137"
     pagecolor="#ffffff"
     bordercolor="#000000"
     borderopacity="0.25"
     inkscape:showpageshadow="2"
     inkscape:pageopacity="0.0"
     inkscape:pagecheckerboard="0"
     inkscape:deskcolor="#d1d1d1"
     showgrid="false" /><path
     id="path6528"
     style="fill:#ffffff;stroke-width:0.3103"
     d="m 15.999013,0 c 0.0045,0.00697999 0.0086,0.01401719 0.01266,0.02120359 h 0.333507 c 0.01132,-4.408e-5 0.02248,-0.001881 0.03377,-0.002115 -0.133206,-0.006278 -0.253436,-0.0126212 -0.379942,-0.019082497459 z m 3.31395,0.67426522 C 19.141191,0.7841194 18.962663,0.88406045 18.776821,0.96899121 18.385987,1.1331816 17.983029,1.2597728 17.569445,1.3527711 17.16539,1.4381034 16.760801,1.53182 16.345183,1.5287586 h -0.719782 -0.409494 c -0.116063,0.090022 -0.232635,0.1788623 -0.348281,0.269282 -0.265094,0.200973 -0.511484,0.4233654 -0.770442,0.6318586 h 1.253813 c 2.309119,0 2.482146,0.04578 2.630053,0.6997094 0.08705,0.3848594 0.505939,2.2149751 0.932972,4.0689152 0.427038,1.8539401 0.776774,3.4149252 0.776774,3.4667412 0,0.05181 -0.324572,0.175474 -0.721893,0.275643 -1.717629,0.433045 -3.843225,2.971756 -4.658527,5.561628 -0.149511,0.474945 -0.606477,0.542805 -3.579912,0.542805 H 7.3236384 L 6.8655955,16.154802 c -1.043962,-2.027917 -4.0789963,-2.388671 -5.7730288,-0.686988 -1.7952824,1.803392 -1.308982,4.874448 0.9519691,6.009018 0.595978,0.299071 1.3400391,0.54466 1.6548646,0.544926 1.0156281,8.56e-4 2.5361952,-0.917262 3.0965387,-1.870133 l 0.5466964,-0.928703 h 4.6268665 4.626866 V 17.87015 c 0,-2.444619 2.332216,-4.866159 4.68808,-4.866159 0.655937,0 1.1926,-0.120469 1.1926,-0.267162 0,-0.06802 -0.129721,-0.707304 -0.327174,-1.636896 -0.05159,-0.01109 -0.103393,-0.02459 -0.154089,-0.04029 -0.262717,-0.08579 -0.518931,-0.190532 -0.715559,-0.394381 -0.04597,-0.05891 -0.100714,-0.111969 -0.139314,-0.175987 -0.211876,-0.351469 -0.18764,-0.7504598 -0.0042,-1.1046891 0.136904,-0.2414726 0.300161,-0.4606153 0.49392,-0.6594228 C 21.493061,8.0994319 21.387148,7.6003668 21.23166,6.9059191 20.346081,2.9506592 19.806619,1.1641629 19.365717,0.72091352 c -0.0169,-0.0169933 -0.03559,-0.0304902 -0.05277,-0.0466471 z M 21.892358,14.356762 c -0.557982,-0.01964 -1.141247,0.09292 -1.720301,0.368937 -2.681486,1.278192 -2.748759,5.44566 -0.109761,6.79142 1.91519,0.976654 4.264928,0.09988 5.097574,-1.901937 1.080093,-2.596707 -0.849606,-5.173295 -3.267512,-5.25842 z M 3.8598211,16.735773 c 0.4492021,0 1.2812534,0.90861 1.2812534,1.399419 0,0.232135 -0.2200122,0.640833 -0.4875939,0.909621 -0.5597128,0.56224 -0.9940108,0.59983 -1.7582937,0.152665 -1.0871294,-0.636056 -0.3713688,-2.461705 0.9646342,-2.461705 z m 17.7306929,0 c 1.374022,0 2.055737,1.85933 0.907642,2.476547 -0.329365,0.177072 -0.738322,0.32229 -0.907642,0.32229 -0.449207,0 -1.279143,-0.908613 -1.279143,-1.399418 0,-0.490809 0.829936,-1.399419 1.279143,-1.399419 z m -9.697,5.612516 c -0.117433,-0.0087 -0.257452,0.509904 -0.310287,1.15134 l -0.09709,1.166181 -2.321876,0.101776 -2.3218771,0.101776 3.2506271,1.670822 c 1.787935,0.918584 3.355105,1.676869 3.482815,1.685663 0.127712,0.0087 0.232187,-0.543478 0.232187,-1.227672 v -1.244634 l 2.399976,-0.01483 2.399975,-0.01697 -3.250626,-1.677181 c -1.787939,-0.923233 -3.346404,-1.687471 -3.463817,-1.696265 z"
     inkscape:export-filename="..\icons\scooter.svg"
     inkscape:export-xdpi="96"
     inkscape:export-ydpi="96" /></svg>
