<?xml version="1.0" encoding="UTF-8" standalone="no"?>
<!-- Created with Inkscape (http://www.inkscape.org/) -->

<svg
   version="1.1"
   id="svg5632"
   width="716"
   height="569"
   viewBox="0 0 715.99998 569"
   sodipodi:docname="villa sol logo_wizualizacja.pdf"
   xmlns:inkscape="http://www.inkscape.org/namespaces/inkscape"
   xmlns:sodipodi="http://sodipodi.sourceforge.net/DTD/sodipodi-0.dtd"
   xmlns="http://www.w3.org/2000/svg"
   xmlns:svg="http://www.w3.org/2000/svg">
  <defs
     id="defs5636" />
  <sodipodi:namedview
     id="namedview5634"
     pagecolor="#686868"
     bordercolor="#000000"
     borderopacity="0.25"
     inkscape:showpageshadow="2"
     inkscape:pageopacity="0"
     inkscape:pagecheckerboard="0"
     inkscape:deskcolor="#d1d1d1"
     showgrid="false" />
  <g
     id="g5640"
     inkscape:groupmode="layer"
     inkscape:label="Page 1"
     transform="matrix(1.3333333,0,0,-1.3333333,0,1104.3024)">
    <path
       d="M 39.787394,545.62309 H 195.24899 c 1.73808,0 3.15613,1.41853 3.15613,3.15613 v 0.64637 c 0,1.73808 -1.41805,3.15613 -3.15613,3.15613 H 39.787394 c -1.73616,0 -3.15469,-1.41949 -3.15469,-3.15613 v -0.64637 c 0,-1.7376 1.41708,-3.15613 3.15469,-3.15613"
       style="fill:#fbc707;fill-opacity:1;fill-rule:evenodd;stroke:none;stroke-width:4.81999"
       id="path5654" />
    <path
       d="m 70.521104,651.11777 c 0,-0.4044 -0.5167,-1.39105 -1.52601,-2.98261 -1.00979,-1.61518 -2.48953,-3.94854 -4.46379,-7.04346 -1.97283,-3.07274 -4.37366,-7.01983 -7.17745,-11.81958 -2.80331,-4.79975 -5.69579,-10.1162 -8.67984,-15.94743 -3.4087,-6.68388 -5.87654,-11.95502 -7.4011,-15.79029 -1.50287,-3.83526 -2.2654,-7.13214 -2.2654,-9.89062 0,-2.1984 1.16692,-4.12784 3.47714,-5.78785 2.82548,2.1984 5.58396,4.79975 8.29762,7.82912 2.71462,3.0043 5.40658,6.39131 8.05276,10.11475 2.64666,3.72296 5.7194,8.43402 9.21872,14.10811 3.47569,5.69627 6.57157,10.94572 9.28523,15.70016 -0.13545,0.4044 -0.26944,0.78566 -0.42657,1.18861 -0.15713,0.4044 -0.22365,0.71722 -0.22365,0.98665 0,2.06441 0.42609,3.9924 1.25561,5.78737 0.83048,1.794 1.86196,3.54317 3.11757,5.27018 1.25561,1.70483 3.11805,4.10567 5.62927,7.22227 0.65166,0.83049 1.45805,1.25657 2.42253,1.25657 1.593,0 2.37722,-1.0093 2.37722,-3.02743 0,-2.01958 -0.82952,-5.18246 -2.46591,-9.48767 -1.63832,-4.30667 -4.06084,-9.37537 -7.26758,-15.20708 -3.18458,-5.83267 -7.17697,-12.33628 -11.9319,-19.53639 -4.75588,-7.19914 -10.13788,-14.7135 -16.12624,-22.56286 -6.10211,-7.9178 -10.45215,-11.88851 -13.09881,-11.88851 -1.48118,0 -3.16288,0.83097 -5.04701,2.46784 -1.88414,1.63687 -3.52101,3.88009 -4.86675,6.72871 -1.36888,2.84909 -2.04127,5.87653 -2.04127,9.12858 0,1.90582 0.40296,4.39631 1.2103,7.40109 0.80784,3.02889 2.08658,6.64002 3.81358,10.87824 1.727,4.21653 3.67814,8.3892 5.85436,12.49342 2.28757,4.32835 4.28353,7.93949 6.03222,10.76642 1.72845,2.84765 3.67958,6.01053 5.87654,9.50936 2.19839,3.47618 3.29832,5.36031 3.29832,5.67457 0,0.65022 -0.44971,0.98617 -1.32405,0.98617 -2.53436,0 -5.92136,-1.30043 -10.13789,-3.88009 -4.23967,-2.57821 -9.73349,-6.50361 -16.50751,-11.75162 -2.60135,-2.0191 -4.21653,-3.32001 -4.91205,-3.90323 -0.67336,-0.5837 -1.00931,-1.07679 -1.00931,-1.47974 0,-0.5167 0.42609,-0.78566 1.25561,-0.78566 0.3374,0 1.52601,0.13496 3.52197,0.4044 2.01813,0.26896 3.61113,0.40295 4.79974,0.40295 1.97331,0 2.96092,-0.35957 2.96092,-1.05365 0,-0.62804 -0.40439,-1.09944 -1.23391,-1.45901 -0.80735,-0.35812 -1.90727,-0.69408 -3.3417,-1.05317 -1.41274,-0.35957 -3.34219,-0.82952 -5.80954,-1.45804 -2.62448,-0.69553 -5.42827,-1.70532 -8.38919,-3.02792 -2.95948,-1.30044 -4.66431,-1.95065 -5.11257,-1.95065 -0.83048,0 -1.34574,0.29064 -1.54818,0.91917 -0.20196,0.60539 -0.29209,1.61518 -0.29209,3.02792 0,6.21248 1.03292,11.03392 3.09588,14.42141 2.06295,3.4087 5.74109,6.95284 11.03537,10.63098 6.05584,4.21749 11.84175,7.7168 17.36016,10.49745 5.53914,2.78162 10.29406,4.82289 14.30959,6.10019 4.01409,1.30091 6.95284,1.95113 8.83698,1.95113 1.8393,0 3.67813,-1.18861 5.49527,-3.56583 1.81569,-2.3777 2.73679,-4.86675 2.73679,-7.5134"
       style="fill:#ffffff;fill-opacity:1;fill-rule:nonzero;stroke:none;stroke-width:4.81999"
       id="path5656" />
    <path
       d="m 106.67586,626.93972 c -1.09992,0 -2.1314,0.42513 -3.11757,1.25561 -0.9881,0.82952 -1.48119,1.88414 -1.48119,3.13974 0,1.92945 0.91966,4.08254 2.75849,6.45976 1.84027,2.35553 3.74658,3.54414 5.69771,3.54414 1.32357,0 2.42204,-0.4044 3.29687,-1.21175 0.87579,-0.80735 1.30044,-1.99596 1.30044,-3.521 0,-1.88414 -0.89604,-3.97023 -2.69149,-6.2578 -1.794,-2.26491 -3.72344,-3.4087 -5.76326,-3.4087 z m 4.46235,-29.36049 v -4.79975 c -4.26136,-5.4731 -8.23062,-9.62263 -11.909716,-12.40328 -3.67814,-2.78162 -6.79619,-4.17122 -9.3744,-4.17122 -3.61114,0 -6.28093,1.88268 -8.02963,5.65095 -1.75014,3.76827 -2.62448,7.89611 -2.62448,12.35943 0,1.70386 0.17882,3.34218 0.51622,4.88891 0.35812,1.56987 0.78421,2.84862 1.2556,3.85841 0.49309,1.00979 1.39106,2.57966 2.71366,4.73275 6.21249,9.68866 11.90972,14.53323 17.069036,14.53323 2.66835,0 4.01409,-1.03147 4.01409,-3.09443 0,-1.39105 -0.87435,-3.58945 -2.60135,-6.57206 -1.727,-2.98261 -3.275186,-5.11401 -4.620926,-6.39275 -3.81165,-3.67814 -6.30262,-6.23466 -7.4464,-7.67054 -1.16548,-1.45804 -1.7487,-3.09443 -1.7487,-4.93374 0,-1.57132 0.58322,-2.89392 1.77232,-3.94854 1.18861,-1.05317 2.71317,-1.56987 4.5973,-1.56987 2.06344,0 4.32836,0.76252 6.796186,2.2654 2.46736,1.50287 5.6741,3.9254 9.62119,7.2671"
       style="fill:#ffffff;fill-opacity:1;fill-rule:nonzero;stroke:none;stroke-width:4.81999"
       id="path5658" />
    <path
       d="m 141.95675,598.32006 v -4.86819 c -9.17341,-12.13433 -16.61981,-18.18968 -22.3609,-18.18968 -3.09637,0 -5.54058,1.70531 -7.31241,5.09087 -1.77231,3.38701 -2.6698,7.8508 -2.6698,13.36777 0,4.46379 1.05462,9.78024 3.16288,15.92573 2.08658,6.16766 4.91205,12.40328 8.43402,18.72759 3.52101,6.3248 7.17745,11.84321 10.96741,16.55282 3.78996,4.71106 7.31241,8.00793 10.56398,9.89207 1.30091,0.78421 2.33239,1.18861 3.07322,1.18861 0.91918,0 1.52457,-0.4044 1.83883,-1.21175 0.29113,-0.80735 0.44826,-2.1984 0.44826,-4.17122 0,-6.10066 -2.46639,-13.5702 -7.42327,-22.45248 -4.95688,-8.85915 -11.86489,-17.92025 -20.72548,-27.16066 -0.42609,-2.28853 -0.65022,-4.03722 -0.65022,-5.24945 0,-2.80331 0.60539,-5.09087 1.81714,-6.84101 1.21078,-1.7487 2.87079,-2.62304 5.02388,-2.62304 1.09847,0 2.28853,0.42609 3.56631,1.2773 1.27874,0.85265 2.60135,1.92944 4.01553,3.18601 1.38912,1.27778 4.14905,3.79044 8.23062,7.55871 z m -19.69256,11.79789 c 2.28853,2.24226 4.48549,4.77662 6.61689,7.62523 2.12995,2.84862 4.14953,5.87653 6.03366,9.1281 1.88414,3.22988 3.36387,6.14597 4.44018,8.72515 1.07678,2.57966 1.61518,4.53079 1.61518,5.85484 0,1.00835 -0.35957,1.50288 -1.05365,1.50288 -0.26896,0 -0.76349,-0.24727 -1.50288,-0.71866 -2.69148,-2.1984 -5.69723,-6.45976 -9.03941,-12.82938 -3.3417,-6.3701 -5.69723,-12.80671 -7.10997,-19.28816"
       style="fill:#ffffff;fill-opacity:1;fill-rule:nonzero;stroke:none;stroke-width:4.81999"
       id="path5660" />
    <path
       d="m 172.77481,598.32006 v -4.86819 c -9.17341,-12.13433 -16.61981,-18.18968 -22.3609,-18.18968 -3.09588,0 -5.5401,1.70531 -7.31241,5.09087 -1.77231,3.38701 -2.6698,7.8508 -2.6698,13.36777 0,4.46379 1.05462,9.78024 3.16288,15.92573 2.08658,6.16766 4.91206,12.40328 8.43451,18.72759 3.52052,6.3248 7.17696,11.84321 10.96692,16.55282 3.79044,4.71106 7.31241,8.00793 10.56446,9.89207 1.30043,0.78421 2.33191,1.18861 3.07274,1.18861 0.91966,0 1.52457,-0.4044 1.83883,-1.21175 0.29113,-0.80735 0.44826,-2.1984 0.44826,-4.17122 0,-6.10066 -2.46591,-13.5702 -7.42327,-22.45248 -4.95688,-8.85915 -11.86489,-17.92025 -20.725,-27.16066 -0.42657,-2.28853 -0.6507,-4.03722 -0.6507,-5.24945 0,-2.80331 0.60539,-5.09087 1.81714,-6.84101 1.21078,-1.7487 2.87079,-2.62304 5.02388,-2.62304 1.09896,0 2.28901,0.42609 3.56631,1.2773 1.27874,0.85265 2.60135,1.92944 4.01553,3.18601 1.38961,1.27778 4.14953,3.79044 8.23062,7.55871 z m -19.69256,11.79789 c 2.28854,2.24226 4.48549,4.77662 6.61689,7.62523 2.12995,2.84862 4.14953,5.87653 6.03366,9.1281 1.88414,3.22988 3.36388,6.14597 4.44066,8.72515 1.07631,2.57966 1.6147,4.53079 1.6147,5.85484 0,1.00835 -0.35909,1.50288 -1.05317,1.50288 -0.26944,0 -0.76397,-0.24727 -1.50287,-0.71866 -2.69197,-2.1984 -5.69771,-6.45976 -9.03941,-12.82938 -3.34219,-6.3701 -5.69772,-12.80671 -7.11046,-19.28816"
       style="fill:#ffffff;fill-opacity:1;fill-rule:nonzero;stroke:none;stroke-width:4.81999"
       id="path5662" />
    <path
       d="m 179.86309,609.3323 c 6.66219,6.05535 13.12195,10.54084 19.40143,13.48007 6.2578,2.9373 11.10237,4.39631 14.51155,4.39631 0.91917,0 1.77183,-0.38223 2.57966,-1.14475 0.78518,-0.76252 1.41274,-1.65856 1.86196,-2.66835 0.46995,-1.00978 0.69408,-1.75013 0.69408,-2.2437 0,-0.78421 -0.31282,-1.36743 -0.91965,-1.727 -0.60491,-0.38078 -1.6817,-0.82904 -3.22843,-1.34575 0.31281,-0.71721 0.71721,-1.61469 1.18861,-2.71317 0.49356,-1.07679 0.85121,-1.97427 1.12064,-2.64666 0.26896,-0.69552 0.38126,-1.27874 0.38126,-1.81713 0,-1.05365 -1.05365,-3.00575 -3.18505,-5.87654 -2.10826,-2.8703 -3.61113,-4.97857 -4.46234,-6.34793 -0.85266,-1.36743 -1.27875,-3.02743 -1.27875,-5.00025 0,-3.23036 1.47974,-4.8682 4.4638,-4.8682 3.07274,0 7.87249,2.87175 14.39924,8.61285 v -3.99192 c -11.08068,-12.31315 -19.02017,-18.45912 -23.79823,-18.45912 -1.727,0 -2.9373,0.56056 -3.67813,1.68218 -0.71722,1.12161 -1.07631,2.75848 -1.07631,4.95687 0,3.45401 1.25561,8.4562 3.76779,15.02633 -6.41444,-7.08684 -11.14719,-12.13385 -14.26525,-15.13815 -3.1166,-2.98406 -5.67409,-4.48693 -7.69222,-4.48693 -0.96448,0 -2.15357,0.83049 -3.61114,2.49049 -1.43587,1.68218 -2.7151,3.83527 -3.83527,6.48192 -1.12161,2.64618 -1.68314,5.40514 -1.68314,8.23159 0,2.06343 0.20196,3.79044 0.58322,5.15787 0.4044,1.39105 1.16692,2.80379 2.31071,4.23966 1.1433,1.45805 2.96044,3.36388 5.44996,5.71941 z m 31.49045,7.24396 c -11.39349,-5.22583 -19.51373,-9.6448 -24.35686,-13.27763 -4.84506,-3.65596 -7.26758,-7.4011 -7.26758,-11.2595 0,-1.39105 0.24581,-2.55652 0.71721,-3.45401 0.49357,-0.89651 1.14378,-1.34574 1.97427,-1.34574 0.49357,0 1.34622,0.31427 2.55652,0.91918 4.59779,2.7151 8.81528,6.25779 12.62742,10.63145 3.81309,4.35149 8.41088,10.29502 13.74902,17.78625"
       style="fill:#ffffff;fill-opacity:1;fill-rule:nonzero;stroke:none;stroke-width:4.81999"
       id="path5664" />
    <path
       d="m 421.00996,647.67809 c 10.5177,-1.68893 20.22227,-6.65834 27.78773,-14.22332 9.54889,-9.54888 14.8663,-22.38259 14.8663,-35.89014 0,-13.5085 -5.31597,-26.34173 -14.8663,-35.8911 -7.56546,-7.56498 -17.78384,-12.79659 -28.30154,-14.48552 -0.67239,-0.10797 -0.78036,0.32921 -1.29803,0.77072 -0.51766,0.44151 -0.78855,1.02762 -0.78855,1.70772 v 2.00849 c 0,1.10522 0.99774,2.28853 2.08802,2.47025 9.06496,1.5207 17.204,5.5801 23.72689,12.10155 8.33184,8.3328 12.97012,19.53109 12.97012,31.31789 0,11.78585 -4.63683,22.98413 -12.97012,31.31693 -6.52289,6.5229 -14.87642,10.83776 -23.94138,12.35846 -1.09028,0.18316 -1.87353,1.10812 -1.87353,2.21334 v 2.00849 c 0,0.6801 0.27089,1.2667 0.78855,1.70773 0.51767,0.44295 1.13945,0.61647 1.81184,0.50851"
       style="fill:#fbc707;fill-opacity:1;fill-rule:evenodd;stroke:none;stroke-width:4.81999"
       id="path5666" />
    <path
       d="m 281.01475,547.18801 h 139.4814 v 6.95718 h -139.4814 c -1.73761,0 -3.15613,-1.41804 -3.15613,-3.15469 v -0.6478 c 0,-1.73617 1.41852,-3.15469 3.15613,-3.15469"
       style="fill:#fbc707;fill-opacity:1;fill-rule:evenodd;stroke:none;stroke-width:4.81999"
       id="path5668" />
    <path
       d="m 299.13744,596.05935 c -1.09848,2.01909 -2.73535,3.83527 -4.93375,5.44996 -2.17526,1.61518 -4.64261,2.91706 -7.3794,3.90372 -2.73679,0.98617 -5.6071,1.727 -8.56802,2.19839 -8.83697,1.32261 -17.09073,4.17122 -24.76126,8.6114 -0.65022,0.33788 -1.34574,1.07679 -2.08657,2.22202 -0.74035,1.1433 -1.12162,2.24178 -1.12162,3.29687 0,3.83479 0.65022,7.71536 1.92945,11.57232 1.30043,3.88009 2.93875,6.90801 4.95688,9.10641 3.22987,3.63427 9.0611,6.81932 17.49512,9.55467 8.43306,2.71462 17.92073,4.08205 28.4847,4.08205 6.30262,0 11.16937,-0.49309 14.62337,-1.45757 3.43232,-0.96448 5.15932,-2.44421 5.15932,-4.46379 0,-3.29688 -0.47139,-5.85292 -1.36887,-7.64836 -0.89652,-1.794 -1.861,-2.98261 -2.87079,-3.58801 -1.03148,-0.58321 -2.84862,-1.39104 -5.42683,-2.40035 -2.75993,-0.96352 -5.15932,-1.97331 -7.20058,-3.02792 -2.04127,-1.05365 -3.76827,-2.06296 -5.22584,-3.02792 -1.43636,-0.96448 -2.33239,-1.43587 -2.69196,-1.43587 -0.42609,0 -0.65022,0.18026 -0.65022,0.5167 0,0.76204 0.76252,1.88413 2.33239,3.38701 1.54818,1.52456 3.47714,2.84861 5.74254,3.9924 2.42253,1.2556 3.61114,2.06295 3.61114,2.42204 0,0.56057 -1.32405,0.85266 -3.9924,0.85266 -8.11976,0 -15.58785,-0.71866 -22.47418,-2.17623 -6.88632,-1.43491 -12.29146,-3.34218 -16.26168,-5.69626 -3.96927,-2.37722 -5.94353,-4.77806 -5.94353,-7.22228 0,-1.54818 0.82952,-2.62448 2.46783,-3.25301 1.63687,-0.62708 5.27114,-1.70387 10.87824,-3.18505 5.58396,-1.47974 10.60784,-3.20674 15.02681,-5.11401 6.34744,-2.71318 11.05706,-5.53914 14.1298,-8.47789 3.07323,-2.9373 4.59924,-6.21248 4.59924,-9.84531 0,-2.49097 -0.60684,-5.00219 -1.81714,-7.51485 -1.18861,-2.51121 -2.96092,-4.82144 -5.27114,-6.9297 -2.3324,-2.08657 -5.00219,-3.81358 -8.03011,-5.18101 -2.57918,-1.09992 -5.83122,-2.1314 -9.73349,-3.09588 -3.92492,-0.96496 -8.16458,-1.727 -12.74068,-2.2654 -4.57417,-0.56008 -8.94928,-0.82952 -13.09737,-0.82952 -7.67149,0 -13.83916,0.71722 -18.50491,2.17527 -4.6643,1.43587 -6.9967,3.63282 -6.9967,6.57157 0,1.30092 0.78422,3.34218 2.37722,6.1238 1.56987,2.78065 3.43087,4.66479 5.58396,5.62927 1.88414,0.74035 3.70127,1.16692 5.45045,1.27874 1.75014,0.11231 2.62448,-0.0901 2.62448,-0.62852 0,-0.13352 -0.067,-0.26896 -0.20195,-0.40296 -0.134,-0.11326 -0.26944,-0.22557 -0.44826,-0.31426 -0.17931,-0.0901 -0.35957,-0.18027 -0.5384,-0.26895 -0.87434,-0.35958 -1.56987,-0.62853 -2.1314,-0.83097 -0.53839,-0.17882 -0.98665,-0.38126 -1.30091,-0.58177 -0.33595,-0.20244 -0.49309,-0.4714 -0.49309,-0.80783 0,-0.92062 4.5308,-1.39057 13.5919,-1.39057 7.87249,0 14.33224,0.29113 19.35612,0.85265 5.04749,0.56009 9.48767,1.59157 13.34607,3.09444 3.83527,1.47974 7.35628,3.54414 10.49602,6.16766"
       style="fill:#ffffff;fill-opacity:1;fill-rule:nonzero;stroke:none;stroke-width:4.81999"
       id="path5670" />
    <path
       d="m 360.32434,597.89818 v -4.39535 c -2.89393,-2.62449 -5.20415,-4.37366 -6.95332,-5.27115 -1.75014,-0.87434 -4.26136,-1.2103 -7.55823,-1.03147 -5.67554,-6.75088 -10.69942,-10.13789 -15.02777,-10.13789 -2.46735,0 -4.68792,0.80735 -6.70605,2.42253 -2.0191,1.63686 -3.63428,3.83478 -4.82289,6.63857 -1.2103,2.80379 -1.81713,5.94353 -1.81713,9.39754 0,2.80379 0.9211,5.92136 2.78161,9.33054 1.86245,3.41014 4.28497,6.59471 7.24445,9.55563 2.93875,2.96092 6.10163,5.33814 9.48767,7.15383 3.36484,1.81714 6.50458,2.73679 9.37537,2.73679 2.0644,0 3.67958,-0.31426 4.86819,-0.94134 1.18861,-0.65022 1.77038,-1.52601 1.77038,-2.66979 0,-0.87435 -0.49308,-1.88414 -1.50143,-3.02744 1.65856,-0.33644 2.80379,-0.91966 3.40918,-1.727 0.60491,-0.80784 0.91918,-2.28854 0.91918,-4.44066 0,-2.10971 -0.49309,-4.75589 -1.48071,-7.94094 -0.98665,-3.20674 -2.33239,-6.1908 -4.03626,-8.9941 l 1.18861,-1.18909 h 0.98666 c 0.74035,0 1.47973,0.20243 2.19839,0.56152 0.71722,0.38127 1.36744,0.76253 1.92752,1.1891 0.5837,0.40295 1.81713,1.34574 3.74658,2.78017 z m -13.5249,17.24834 c -3.63331,-2.17527 -6.72919,-4.17122 -9.33054,-5.94353 -2.57966,-1.77232 -4.75492,-3.56583 -6.57206,-5.38345 -1.794,-1.81569 -2.98261,-3.63283 -3.61113,-5.47166 -1.09848,-4.88988 -1.63687,-7.53654 -1.63687,-7.93949 0,-2.89392 2.01813,-4.3298 6.05583,-4.3298 1.88414,0 5.02388,1.6147 9.4655,4.84458 -0.74035,2.06344 -1.12161,4.0377 -1.12161,5.92184 0,2.75848 0.56008,5.56179 1.70387,8.43257 1.14475,2.87176 2.82692,6.14549 5.04701,9.86894"
       style="fill:#ffffff;fill-opacity:1;fill-rule:nonzero;stroke:none;stroke-width:4.81999"
       id="path5672" />
    <path
       d="m 391.63452,598.50501 v -4.86819 c -9.17341,-12.13433 -16.61981,-18.18968 -22.3609,-18.18968 -3.09588,0 -5.54058,1.70531 -7.31241,5.09087 -1.77231,3.38701 -2.6698,7.85081 -2.6698,13.36777 0,4.46379 1.05462,9.78024 3.16288,15.92573 2.08658,6.16766 4.91206,12.40329 8.43402,18.7276 3.52101,6.32479 7.17745,11.8432 10.96741,16.55281 3.78996,4.71106 7.31241,8.00794 10.56446,9.89207 1.30043,0.78421 2.33191,1.18861 3.07274,1.18861 0.91918,0 1.52457,-0.4044 1.83883,-1.21175 0.29113,-0.80734 0.44826,-2.19839 0.44826,-4.17122 0,-6.10066 -2.46639,-13.5702 -7.42327,-22.45248 -4.95688,-8.85914 -11.86489,-17.92025 -20.725,-27.16065 -0.42657,-2.28853 -0.6507,-4.03723 -0.6507,-5.24946 0,-2.8033 0.60539,-5.09087 1.81714,-6.84101 1.21078,-1.74869 2.87079,-2.62304 5.02388,-2.62304 1.09847,0 2.28853,0.42609 3.56631,1.2773 1.27874,0.85266 2.60135,1.92944 4.01553,3.18601 1.38961,1.27778 4.14953,3.79044 8.23062,7.55871 z m -19.69256,11.7979 c 2.28853,2.24226 4.48549,4.77661 6.61689,7.62522 2.12995,2.84862 4.14953,5.87654 6.03366,9.1281 1.88414,3.22988 3.36387,6.14597 4.44066,8.72515 1.0763,2.57966 1.6147,4.53079 1.6147,5.85485 0,1.00834 -0.35909,1.50287 -1.05317,1.50287 -0.26944,0 -0.76397,-0.24727 -1.50336,-0.71866 -2.69148,-2.1984 -5.69723,-6.45975 -9.03941,-12.82937 -3.3417,-6.3701 -5.69723,-12.80672 -7.10997,-19.28816"
       style="fill:#ffffff;fill-opacity:1;fill-rule:nonzero;stroke:none;stroke-width:4.81999"
       id="path5674" />
    <path
       d="m 481.56689,623.4263 c -1.65085,-0.49598 -3.3928,0.44247 -3.88733,2.09139 -0.49597,1.65085 0.44151,3.39279 2.09188,3.88733 l 19.32334,5.74398 c 1.65085,0.49598 3.3928,-0.44151 3.88733,-2.09188 0.49597,-1.65036 -0.44151,-3.39134 -2.09188,-3.88684 z m -33.65463,38.42304 c -0.5249,-1.64265 -2.28323,-2.54688 -3.92396,-2.02247 -1.6412,0.52635 -2.54688,2.28323 -2.02246,3.92396 l 6.09391,19.21586 c 0.52442,1.64072 2.28178,2.54688 3.92396,2.02199 1.64072,-0.52587 2.54688,-2.28323 2.02054,-3.92396 z m 80.51555,-69.59393 c 1.65615,-0.4632 2.62352,-2.18345 2.16032,-3.83912 -0.4632,-1.65615 -2.18346,-2.62352 -3.83913,-2.16032 l -42.51811,11.80753 c -1.65566,0.4632 -2.62448,2.18346 -2.15983,3.83913 0.4632,1.6547 2.18297,2.62352 3.83912,2.16032 z M 405.62117,709.60003 c -0.43332,1.66387 0.56587,3.36484 2.22973,3.7996 1.66434,0.43284 3.36532,-0.56586 3.79815,-2.22972 l 11.03586,-42.72586 c 0.43283,-1.66386 -0.56587,-3.36483 -2.22973,-3.79959 -1.66435,-0.43284 -3.36532,0.56586 -3.7996,2.22972 z m 62.26224,-64.38978 c -1.23247,-1.2103 -3.21349,-1.19247 -4.42571,0.0386 -1.20886,1.23392 -1.19102,3.21493 0.0386,4.42572 L 494.98,680.5924 c 1.23247,1.21078 3.21349,1.1915 4.42427,-0.0434 1.2103,-1.23102 1.19246,-3.21349 -0.0386,-4.42427 l -31.4837,-30.91783 z"
       style="fill:#fbc707;fill-opacity:1;fill-rule:nonzero;stroke:none;stroke-width:4.81999"
       id="path5676" />
    <g
       id="g5692"
       style="fill:#ffffff"
       transform="matrix(4.8199915,0,0,4.8199915,-2332.3305,-2676.2221)">
      <path
         d="m 520.0177,701.3013 0.8592,-2.6615 2.7964,0.005 -2.2655,-1.6393 0.8691,-2.658 -2.2592,1.648 -2.2592,-1.648 0.8691,2.658 -2.2654,1.6393 2.7964,-0.005 z"
         style="fill:#ffffff;fill-opacity:1;fill-rule:evenodd;stroke:none"
         id="path5694" />
      <path
         d="m 528.1821,701.3013 0.8592,-2.6615 2.7963,0.005 -2.2654,-1.6393 0.8691,-2.658 -2.2592,1.648 -2.2592,-1.648 0.8691,2.658 -2.2655,1.6393 2.7964,-0.005 z"
         style="fill:#ffffff;fill-opacity:1;fill-rule:evenodd;stroke:none"
         id="path5696" />
      <path
         d="m 536.3464,701.3013 0.8592,-2.6615 2.7964,0.005 -2.2655,-1.6393 0.8691,-2.658 -2.2592,1.648 -2.2592,-1.648 0.8691,2.658 -2.2654,1.6393 2.7963,-0.005 z"
         style="fill:#ffffff;fill-opacity:1;fill-rule:evenodd;stroke:none"
         id="path5698" />
    </g>
  </g>
</svg>
