<?xml version="1.0" encoding="UTF-8" standalone="no"?>
<svg
   width="30"
   height="28"
   viewBox="0 0 30 28"
   fill="none"
   version="1.1"
   id="svg6135"
   sodipodi:docname="78.svg"
   xml:space="preserve"
   inkscape:export-filename="..\icons\ecar.svg"
   inkscape:export-xdpi="96"
   inkscape:export-ydpi="96"
   xmlns:inkscape="http://www.inkscape.org/namespaces/inkscape"
   xmlns:sodipodi="http://sodipodi.sourceforge.net/DTD/sodipodi-0.dtd"
   xmlns="http://www.w3.org/2000/svg"
   xmlns:svg="http://www.w3.org/2000/svg"><defs
     id="defs6139" /><sodipodi:namedview
     id="namedview6137"
     pagecolor="#ffffff"
     bordercolor="#000000"
     borderopacity="0.25"
     inkscape:showpageshadow="2"
     inkscape:pageopacity="0.0"
     inkscape:pagecheckerboard="0"
     inkscape:deskcolor="#d1d1d1"
     showgrid="false" /><path
     style="fill:#ffffff;stroke-width:0.284196"
     d="m 12.670635,25.559318 -2.9840568,-1.526223 2.1314698,-0.09334 2.131469,-0.09334 0.0882,-1.065735 c 0.04851,-0.586153 0.14289,-1.065734 0.209728,-1.065734 0.06683,0 1.474362,0.671413 3.12783,1.492029 l 3.006304,1.492028 -2.079251,0.142098 -2.07925,0.142098 -0.0882,1.065735 c -0.04851,0.586153 -0.176401,1.059177 -0.284196,1.051165 -0.107793,-0.008 -1.538816,-0.701366 -3.180047,-1.540787 z M 4.8992963,19.774252 C 4.5014336,19.33462 4.4289548,18.528164 4.4289548,14.540882 V 9.8272345 L 5.744415,6.0373851 C 6.4679211,3.9529682 7.3133609,2.0237319 7.6231743,1.7501934 8.1266587,1.3056579 8.9190842,1.2528506 15.086299,1.2528506 c 6.167216,0 6.959642,0.052807 7.463126,0.4973428 0.309813,0.2735385 1.155253,2.2027748 1.878759,4.2871917 l 1.31546,3.7898494 v 4.7630275 c 0,4.253419 -0.0556,4.813353 -0.519721,5.23337 -0.592093,0.535837 -1.536106,0.606871 -2.340921,0.176146 -0.381104,-0.203961 -0.549708,-0.596213 -0.549708,-1.278882 V 17.73621 H 15.086299 7.8393056 v 0.984686 c 0,0.682669 -0.1686052,1.074921 -0.5497091,1.278882 -0.8389061,0.44897 -1.8677384,0.351898 -2.3903002,-0.225526 z M 9.8773472,13.855519 C 10.900671,12.929423 10.38281,11.219887 8.9402544,10.762038 8.1338882,10.506108 6.8707653,11.464132 6.7563537,12.418428 6.5733181,13.94515 8.6975112,14.923256 9.8773472,13.855519 Z M 22.918902,13.740252 c 0.768281,-0.768282 0.62179,-1.899958 -0.33831,-2.61348 -1.724153,-1.2813505 -3.781942,1.080206 -2.33472,2.679368 0.626206,0.691949 1.947768,0.659374 2.67303,-0.06589 z M 22.530304,5.6578864 21.640987,2.9580257 H 15.086299 8.5316117 L 7.6422944,5.6578864 6.7529807,8.3577472 h 8.3333183 8.333319 z"
     id="path6790" /></svg>
