<?xml version="1.0" encoding="UTF-8" standalone="no"?>
<svg
   width="26.921625"
   height="26.580669"
   viewBox="0 0 26.921625 26.580669"
   fill="none"
   version="1.1"
   id="svg6135"
   sodipodi:docname="78.svg"
   xml:space="preserve"
   xmlns:inkscape="http://www.inkscape.org/namespaces/inkscape"
   xmlns:sodipodi="http://sodipodi.sourceforge.net/DTD/sodipodi-0.dtd"
   xmlns="http://www.w3.org/2000/svg"
   xmlns:svg="http://www.w3.org/2000/svg"><defs
     id="defs6139" /><sodipodi:namedview
     id="namedview6137"
     pagecolor="#ffffff"
     bordercolor="#000000"
     borderopacity="0.25"
     inkscape:showpageshadow="2"
     inkscape:pageopacity="0.0"
     inkscape:pagecheckerboard="0"
     inkscape:deskcolor="#d1d1d1"
     showgrid="false" /><path
     style="fill:#ffffff;stroke-width:0.324358"
     d="m 10.703778,24.822057 -3.4057476,-1.7419 2.4326783,-0.106534 2.4326763,-0.106534 0.100662,-1.216338 c 0.05536,-0.668986 0.163079,-1.216338 0.239367,-1.216338 0.07628,0 1.682711,0.766293 3.56984,1.702873 l 3.431136,1.702874 -2.373079,0.162172 -2.373078,0.162172 -0.100679,1.21634 c -0.05536,0.668986 -0.20133,1.208855 -0.324358,1.199711 -0.12302,-0.0091 -1.756273,-0.80048 -3.629435,-1.758524 z M 5.3518897,18.357728 C 4.1194887,17.813732 3.2745577,16.869608 2.9599804,15.685015 2.7453083,14.876632 2.5404354,14.745434 1.3569274,14.658442 L 0,14.558705 V 12.355257 C 0,9.6452202 0.4381486,8.2624869 1.7319842,6.8893559 2.987986,5.5563802 4.2980439,5.1937357 7.8656544,5.1914623 l 2.8381236,-0.00188 v 3.4057481 3.4057466 l 2.513768,-0.01506 2.513765,-0.01506 2.349511,-2.9851728 c 2.23738,-2.8426989 2.349613,-3.0664493 2.351588,-4.6880469 l 0.0021,-1.7028727 H 18.32619 16.21787 V 1.2974273 0 h 2.538316 c 2.233886,0 2.622896,0.09003099 3.243568,0.75070746 0.612342,0.65180724 0.705254,1.12183894 0.705254,3.56778394 v 2.8170722 l -2.946747,3.7302464 -2.946747,3.730246 h -3.018693 c -2.981625,0 -3.021297,0.01044 -3.230695,0.844677 -0.335042,1.334916 -1.1051593,2.30097 -2.2779276,2.857485 -1.295229,0.614624 -1.658112,0.621995 -2.932286,0.05956 z m 2.1296417,-2.47571 c 1.1783023,-0.630608 0.754169,-1.286015 -0.8322144,-1.286015 -1.5987389,0 -1.7256569,0.141474 -0.9227986,1.028618 0.6178834,0.682754 0.8865876,0.722165 1.755013,0.257397 z m 14.0606946,2.46958 C 19.36428,17.403321 18.491053,14.83995 19.609307,12.67749 c 0.510962,-0.988092 2.245723,-1.974506 3.469054,-1.972559 1.783094,0.0027 3.843264,2.216165 3.843264,4.128981 0,1.058239 -1.167097,2.783555 -2.290499,3.386043 -1.299752,0.697066 -1.746538,0.716108 -3.0889,0.131648 z m 2.157153,-2.46958 c 0.744098,-0.39823 0.827146,-1.689516 0.14507,-2.255591 -0.270735,-0.224689 -0.830419,-0.312927 -1.275809,-0.201141 -1.054887,0.26476 -1.384848,1.358912 -0.653511,2.167031 0.647529,0.715512 0.909225,0.758002 1.78425,0.289701 z M 4.2166395,2.5947965 V 1.2973692 H 7.4602094 10.703778 V 2.5947965 3.8922238 H 7.4602094 4.2166395 Z"
     id="path6613"
     inkscape:export-filename="..\icons\emotor.svg"
     inkscape:export-xdpi="96"
     inkscape:export-ydpi="96" /></svg>
