<?xml version="1.0" encoding="UTF-8" standalone="no"?>
<svg
   width="20.675844"
   height="26.083376"
   viewBox="0 0 20.675844 26.083376"
   fill="none"
   version="1.1"
   id="svg6135"
   sodipodi:docname="78.svg"
   xml:space="preserve"
   inkscape:export-filename="..\icons\ecar.svg"
   inkscape:export-xdpi="96"
   inkscape:export-ydpi="96"
   xmlns:inkscape="http://www.inkscape.org/namespaces/inkscape"
   xmlns:sodipodi="http://sodipodi.sourceforge.net/DTD/sodipodi-0.dtd"
   xmlns="http://www.w3.org/2000/svg"
   xmlns:svg="http://www.w3.org/2000/svg"><defs
     id="defs6139" /><sodipodi:namedview
     id="namedview6137"
     pagecolor="#ffffff"
     bordercolor="#000000"
     borderopacity="0.25"
     inkscape:showpageshadow="2"
     inkscape:pageopacity="0.0"
     inkscape:pagecheckerboard="0"
     inkscape:deskcolor="#d1d1d1"
     showgrid="false" /><path
     style="fill:#ffffff;stroke-width:0.318089"
     d="M 0.63618034,25.447194 C 0.02292534,24.83394 1.3539429e-7,24.386897 1.3539429e-7,13.041688 1.3539429e-7,1.6964786 0.02293214,1.249434 0.63618034,0.63617912 1.2425962,0.02976242 1.6964786,1.6529847e-8 10.337922,1.6529847e-8 18.979366,1.6529847e-8 19.433249,0.02976602 20.039665,0.63617912 20.652919,1.249434 20.675844,1.6964786 20.675844,13.041688 c 0,11.345209 -0.02293,11.792252 -0.636179,12.405506 -0.606416,0.606417 -1.060299,0.636181 -9.701743,0.636181 -8.6414434,0 -9.0953258,-0.02978 -9.70174166,-0.636181 z M 13.541955,23.071041 c 1.434293,-0.597356 3.25673,-2.30918 4.041807,-3.796482 0.906283,-1.716927 0.960508,-5.23922 0.105751,-6.869052 -0.814269,-1.55262 -2.351349,-3.1146123 -3.852597,-3.9150283 -1.777983,-0.9479631 -5.2199966,-0.9479631 -6.9979786,0 C 4.3466142,9.8193057 2.6478807,12.231825 2.3343681,14.887806 1.6322991,20.835554 7.9077574,25.417587 13.54196,23.071041 Z M 8.2892804,20.436785 c -0.601906,-0.305891 -1.139265,-0.701057 -1.194136,-0.878147 -0.05488,-0.177094 1.542253,-1.959346 3.5491646,-3.960561 l 3.648927,-3.638575 0.677325,1.531209 c 0.901002,2.036862 0.645306,3.904352 -0.752572,5.496443 -1.72631,1.966159 -3.877386,2.492117 -5.9287086,1.449631 z M 4.7077294,4.7077305 C 5.3077654,4.1076958 5.1573114,2.9215165 4.4319288,2.533303 3.9204621,2.2595743 3.6025244,2.2940436 3.0005233,2.6884899 1.7352507,3.5175288 2.165725,5.0894382 3.6580346,5.0894382 c 0.3673929,0 0.8397578,-0.1717681 1.0496948,-0.3817077 z M 8.8953274,4.4741697 C 9.3837564,3.5615297 9.3058994,3.2488281 8.4507144,2.6884899 7.8487124,2.2940436 7.5307754,2.2595743 7.0193094,2.533303 6.2810794,2.9283926 6.0946824,4.6105501 6.7594104,4.8787739 7.6419694,5.234894 8.5836664,5.05651 8.8953274,4.4741697 Z"
     id="path7499"
     inkscape:export-filename="..\icons\pralka.svg"
     inkscape:export-xdpi="96"
     inkscape:export-ydpi="96" /></svg>
